<svg xmlns="http://www.w3.org/2000/svg" width="1085" height="1085"><path d="M546 382.833c0 209.642.232 381.167.515 381.167.284 0 2.871-1.533 5.75-3.406 2.879-1.873 30.885-19.564 62.235-39.314 249.34-157.078 256.028-161.33 255.686-162.548-.173-.615-6.882-12.394-14.908-26.175L813.015 460a130968.67 130968.67 0 01-42.203-72.5c-7.993-13.75-23.436-40.3-34.318-59-10.882-18.7-28.555-49.075-39.273-67.5-33.61-57.779-48.103-82.673-63.751-109.5-8.34-14.3-27.457-47.15-42.482-73-38.098-65.549-44.163-75.941-44.603-76.417-.212-.229-.385 171.109-.385 380.75m48 45.947v249.18l6.75-4.326c3.712-2.379 33.075-20.899 65.25-41.154 61.42-38.667 99.281-62.628 124.755-78.951l15.256-9.776-1.91-3.126C799.693 533.41 788 513.002 788 512.526c0-.285-6.9-12.332-15.333-26.772a32315.877 32315.877 0 01-29.861-51.254 189054.434 189054.434 0 00-69.811-120 185368.124 185368.124 0 01-69.78-120c-4.151-7.15-7.923-13.428-8.382-13.95-.458-.522-.833 111.181-.833 248.23m231 216.808a358638.694 358638.694 0 00-87 54.675c-22.825 14.351-51.85 32.593-64.5 40.537a48766.73 48766.73 0 00-40 25.151c-61.156 38.512-86.885 54.488-88.02 54.655-.715.105-2.802-1.095-4.64-2.667-1.837-1.572-3.902-2.876-4.59-2.898-.687-.023-1.25-.518-1.25-1.1 0-.582-.382-.823-.849-.535-.466.289-1.738-.305-2.826-1.318-1.089-1.014-2.957-2.154-4.152-2.533-1.195-.379-2.173-1.109-2.173-1.622 0-.513-.675-.933-1.5-.933s-1.5-.45-1.5-1-.675-1-1.5-1-1.5-.45-1.5-1-.675-1-1.5-1-1.5-.477-1.5-1.059-.45-.781-1-.441-1 .141-1-.441-.675-1.059-1.5-1.059-1.5-.525-1.5-1.167c0-.641-.285-.881-.633-.533-.544.543-8.928-4.645-10.367-6.415-.275-.339-1.512-.931-2.75-1.318-1.237-.386-2.25-1.073-2.25-1.526 0-.453-1.125-1.107-2.5-1.452s-2.5-1.069-2.5-1.608c0-.54-.675-.981-1.5-.981s-1.5-.395-1.5-.879c0-.483-1.35-1.438-3-2.121s-3-1.589-3-2.013c0-.424-1.125-1.053-2.5-1.398s-2.5-1.069-2.5-1.608c0-.54-.641-.981-1.423-.981-.783 0-3.422-1.525-5.864-3.389-2.442-1.864-5.402-3.695-6.577-4.068-1.175-.373-2.136-1.097-2.136-1.61 0-.513-.675-.933-1.5-.933s-1.5-.401-1.5-.892c0-.49-1.125-1.174-2.5-1.519s-2.5-1.069-2.5-1.608c0-.54-.675-.981-1.5-.981s-1.5-.477-1.5-1.059-.422-.798-.939-.479c-.516.319-1.303.008-1.75-.691-.997-1.562-3.916-3.447-7.561-4.883-1.512-.596-2.755-1.377-2.761-1.736-.007-.359-1.807-1.512-4-2.563-2.194-1.051-3.989-2.234-3.989-2.629 0-.394-1.35-1.277-3-1.96s-3-1.589-3-2.013c0-.424-1.125-1.053-2.5-1.398s-2.5-1.069-2.5-1.608c0-.54-.675-.981-1.5-.981s-1.5-.477-1.5-1.059-.45-.781-1-.441-1 .141-1-.441-.605-1.059-1.345-1.059-2.16-.9-3.155-2c-.995-1.1-2.415-2-3.155-2-.74 0-1.345-.45-1.345-1s-.643-1-1.429-1c-.785 0-2.044-.616-2.796-1.368-.753-.753-2.36-1.683-3.572-2.067-1.211-.385-2.203-1.119-2.203-1.632 0-.513-.675-.933-1.5-.933s-1.5-.45-1.5-1-.675-1-1.5-1-1.5-.398-1.5-.883c0-.486-.788-1.148-1.75-1.471-2.245-.754-5.541-2.861-6.485-4.146-.404-.55-.741-.656-.75-.236-.018.935-8.224-4.291-9.252-5.893-.406-.631-1.868-1.432-3.25-1.778-1.382-.347-2.513-1.073-2.513-1.612 0-.54-.675-.981-1.5-.981s-1.5-.477-1.5-1.059-.45-.781-1-.441-1 .141-1-.441-.675-1.059-1.5-1.059-1.5-.477-1.5-1.059-.422-.798-.939-.479c-.516.319-1.344-.145-1.839-1.031-.496-.885-1.311-1.633-1.812-1.661-.993-.056-5.605-2.835-6.41-3.862-.275-.351-1.512-.954-2.75-1.341-1.237-.386-2.25-1.073-2.25-1.526 0-.453-1.125-1.107-2.5-1.452s-2.5-1.069-2.5-1.608c0-.54-.468-.981-1.04-.981-.984 0-6.885-3.792-7.96-5.115-.275-.339-1.512-.931-2.75-1.318-1.237-.386-2.25-1.121-2.25-1.634 0-.513-.675-.933-1.5-.933s-1.5-.477-1.5-1.059-.373-.829-.829-.547c-.456.282-2.368-.704-4.25-2.191-1.881-1.487-5.108-3.561-7.171-4.61-2.062-1.05-3.75-2.314-3.75-2.809 0-.496-.382-.666-.849-.378-.466.289-1.797-.36-2.958-1.441-1.16-1.081-2.578-1.965-3.151-1.965s-1.042-.45-1.042-1-.675-1-1.5-1-1.5-.401-1.5-.892c0-.49-1.125-1.174-2.5-1.519s-2.5-1.069-2.5-1.608c0-.54-.675-.981-1.5-.981s-1.5-.477-1.5-1.059-.45-.781-1-.441-1 .141-1-.441-.609-1.059-1.354-1.059c-.745 0-2.48-1.044-3.856-2.319-1.377-1.276-3.918-2.905-5.646-3.622-1.729-.716-3.144-1.648-3.144-2.072 0-.424-1.125-1.053-2.5-1.398s-2.5-1.069-2.5-1.608c0-.54-.675-.981-1.5-.981s-1.5-.477-1.5-1.059-.377-.826-.837-.541c-.461.284-2.374-.796-4.25-2.401-1.877-1.605-3.975-2.936-4.663-2.958-.687-.023-1.25-.518-1.25-1.1 0-.582-.382-.823-.849-.535-.466.289-1.738-.305-2.826-1.318-1.089-1.014-2.957-2.154-4.152-2.533-1.195-.379-2.173-1.109-2.173-1.622 0-.513-.59-.933-1.311-.933-.722 0-2.219-.845-3.327-1.878-1.109-1.032-2.994-2.188-4.189-2.567-1.195-.379-2.173-1.109-2.173-1.622 0-.513-.45-.933-1-.933-1.293 0-1.283 1.749.019 3.292 4.131 4.899 5.536 6.704 8.087 10.388 1.592 2.299 2.894 4.662 2.894 5.25 0 .589.42 1.07.933 1.07.513 0 1.195.827 1.515 1.838.321 1.01 1.927 3.341 3.568 5.18 1.641 1.838 2.984 3.936 2.984 4.662s.45 1.32 1 1.32 1 .675 1 1.5.45 1.5 1 1.5 1 .675 1 1.5.45 1.5 1 1.5 1 .627 1 1.393.675 1.652 1.5 1.969c.825.316 1.5 1.264 1.5 2.107 0 .842.45 1.531 1 1.531s1 .675 1 1.5.45 1.5 1 1.5 1 .675 1 1.5.45 1.5 1 1.5 1 .45 1 1 .788 1.857 1.75 2.905c2.203 2.397 5.379 6.962 5.096 7.323-.118.149.977 1.557 2.433 3.128 1.456 1.571 3.224 4.159 3.928 5.75.705 1.592 1.621 2.894 2.037 2.894.416 0 .756.627.756 1.393s.704 1.663 1.563 1.993c.86.33 1.282 1.056.937 1.614s.077 1.284.937 1.614c.859.33 1.563 1.227 1.563 1.993s.45 1.393 1 1.393 1 .675 1 1.5.45 1.5 1 1.5 1 .675 1 1.5.45 1.5 1 1.5 1.008.563 1.017 1.25c.01.688 1.03 2.209 2.268 3.381 1.237 1.172 2.916 3.422 3.731 5 .814 1.578 2.053 3.234 2.753 3.68.7.447 1.012 1.234.693 1.75-.319.517-.103.939.479.939s1.059.454 1.059 1.009c0 .554 1.166 2.317 2.592 3.918 1.426 1.6 2.619 3.283 2.651 3.741.032.458.778 1.38 1.658 2.05.879.67 1.283 1.233.897 1.25-.386.018.401 1.223 1.75 2.678 1.348 1.455 2.452 3.255 2.452 4 0 .745.45 1.354 1 1.354s1 .627 1 1.393.675 1.652 1.5 1.969c.825.316 1.5 1.264 1.5 2.107 0 .842.45 1.531 1 1.531s1 .675 1 1.5.45 1.5 1 1.5 1 .675 1 1.5.45 1.5 1 1.5 1 .675 1 1.5.45 1.5 1 1.5 1 .675 1 1.5.45 1.5 1 1.5 1 .427 1 .948c0 .522 1.125 2.163 2.5 3.647 1.375 1.483 2.5 3.306 2.5 4.051 0 .745.45 1.354 1 1.354s1 .675 1 1.5.45 1.5 1 1.5 1 .469 1 1.042c0 .573.459 1.586 1.02 2.25 4.874 5.774 6.563 8.037 10.232 13.708 2.312 3.575 4.664 6.831 5.226 7.235.562.404.623.741.136.75-.488.008.3 1.201 1.75 2.651 1.45 1.45 2.636 3.25 2.636 4s.45 1.364 1 1.364 1 .675 1 1.5.45 1.5 1 1.5 1 .675 1 1.5.45 1.5 1 1.5 1 .627 1 1.393.675 1.652 1.5 1.969c.825.316 1.5 1.264 1.5 2.107 0 .842.45 1.531 1 1.531s1 .675 1 1.5.45 1.5 1 1.5 1 .675 1 1.5.45 1.5 1 1.5 1 .637 1 1.417c0 .779.341 1.566.757 1.75 1.541.678 7.167 8.575 6.55 9.193-.352.352-.119.64.518.64s2.555 2.475 4.262 5.5c1.707 3.025 3.538 5.5 4.067 5.5.53 0 .715.403.411.895-.305.493.119 1.153.941 1.469.822.315 1.494 1.262 1.494 2.105 0 .842.45 1.531 1 1.531s1 .675 1 1.5.45 1.5 1 1.5 1 .675 1 1.5.45 1.5 1 1.5 1 .482 1 1.071c0 .59.562 1.699 1.25 2.466 2.968 3.309 3.75 4.44 3.75 5.421 0 .573.45 1.042 1 1.042s1 .675 1 1.5.45 1.5 1 1.5 1 .675 1 1.5.45 1.5 1 1.5 1 .675 1 1.5.45 1.5 1 1.5 1 .627 1 1.393.675 1.652 1.5 1.969c.825.316 1.5 1.216 1.5 2 0 .783.704 1.694 1.563 2.024.86.33 1.313 1.006 1.006 1.502-.307.496.143 1.171 1 1.5.857.329 1.278 1.051.935 1.605-.342.554-.184 1.007.351 1.007.535 0 2.384 2.292 4.108 5.094 1.724 2.802 4.012 6.036 5.086 7.188 1.073 1.153 1.951 2.685 1.951 3.407 0 .721.45 1.311 1 1.311s1 .675 1 1.5.45 1.5 1 1.5 1 .563 1.001 1.25c0 .688 1.575 3.019 3.5 5.182 1.924 2.162 3.499 4.525 3.499 5.25 0 .725.45 1.318 1 1.318s1 .675 1 1.5.45 1.5 1 1.5 1 .47 1 1.044c0 .574 1.125 2.257 2.5 3.739 1.375 1.483 2.5 3.264 2.5 3.957 0 .693.45 1.26 1 1.26s1 .627 1 1.393.704 1.663 1.563 1.993c.86.33 1.284 1.053.941 1.607-.342.554-.182 1.007.355 1.007.538 0 1.987 1.688 3.221 3.75 1.234 2.063 3.149 4.763 4.256 6 1.107 1.237 1.731 2.25 1.386 2.25-.345 0 .477 1.191 1.826 2.646 1.348 1.455 2.452 3.255 2.452 4 0 .745.45 1.354 1 1.354s1 .675 1 1.5.45 1.5 1 1.5 1 .627 1 1.393.675 1.652 1.5 1.969c.825.316 1.5 1.264 1.5 2.107 0 .842.45 1.531 1 1.531s1 .675 1 1.5.45 1.5 1 1.5 1 .675 1 1.5.45 1.5 1 1.5 1 .675 1 1.5.45 1.5 1 1.5 1 .47 1 1.044c0 .574 1.125 2.257 2.5 3.739 1.375 1.483 2.5 3.216 2.5 3.85 0 .634.704 1.423 1.563 1.753.86.33 1.313 1.006 1.006 1.502-.307.496.143 1.171 1 1.5.857.329 1.278 1.051.935 1.605-.342.554-.242 1.007.221 1.007.464 0 1.694 1.462 2.734 3.25s2.374 3.571 2.966 3.964c.591.392 1.075 1.078 1.075 1.523 0 .445.941 1.819 2.09 3.053 1.15 1.234 2.725 3.474 3.5 4.977.776 1.503 2.398 3.827 3.606 5.165 1.209 1.338 1.968 2.803 1.687 3.257-.28.454.194 1.095 1.054 1.425.859.33 1.563 1.227 1.563 1.993s.45 1.393 1 1.393 1 .675 1 1.5.45 1.5 1 1.5 1 .675 1 1.5.45 1.5 1 1.5 1 .47 1 1.044c0 .574 1.125 2.257 2.5 3.739 1.375 1.483 2.5 3.216 2.5 3.85 0 .634.704 1.423 1.563 1.753.86.33 1.284 1.053.941 1.607-.342.554-.145 1.007.437 1.007s1.059.675 1.059 1.5.42 1.5.933 1.5c.513 0 1.194.826 1.515 1.835.32 1.01 2.157 3.597 4.082 5.75 1.925 2.153 4.053 5.152 4.729 6.665.676 1.513 1.515 2.75 1.864 2.75.349 0 1.18 1.318 1.847 2.928.667 1.611 1.875 3.182 2.685 3.493.809.311 1.206.995.88 1.522-.528.854 3.289 3.699 3.876 2.888.132-.182 31.975-46.231 70.763-102.331 38.788-56.1 92.942-134.4 120.342-174 27.4-39.6 66.459-96.075 86.797-125.5 20.338-29.425 38.977-56.312 41.42-59.75 2.444-3.437 4.291-6.249 4.105-6.248-.186.002-20.813 12.865-45.838 28.586M684 790.342c-7.975 5.069-30.925 19.507-51 32.085-20.075 12.577-37.067 23.385-37.761 24.017-.985.898-1.204 10.447-1 43.603l.261 42.453 15.61-22.5c59.604-85.91 89.285-129.056 88.699-128.937-.17.035-6.834 4.21-14.809 9.279m-290-7.71c0 1.286 4.195 7.368 5.082 7.368.505 0 .918.675.918 1.5s.45 1.5 1 1.5 1 .469 1 1.042c0 .981.782 2.112 3.75 5.421.688.767 1.25 1.876 1.25 2.466 0 .589.45 1.071 1 1.071s1 .675 1 1.5.45 1.5 1 1.5 1 .675 1 1.5.45 1.5 1 1.5 1 .689 1 1.531c0 .843.672 1.79 1.494 2.105.822.316 1.275.929 1.006 1.364-.269.435.184 1.048 1.006 1.364.822.315 1.494 1.262 1.494 2.105 0 .842.45 1.531 1 1.531s1 .675 1 1.5.34 1.5.756 1.5 1.309 1.237 1.985 2.75c1.069 2.39 2.423 4.253 7.239 9.958.561.664 1.02 1.569 1.02 2.01 0 .441 1.143 2.035 2.54 3.542 1.398 1.507 2.185 2.754 1.75 2.772-.434.017.027.651 1.027 1.409.999.757 1.745 1.68 1.657 2.05-.087.37 1.008 1.982 2.434 3.582 1.426 1.601 2.592 3.364 2.592 3.918 0 .555.45 1.009 1 1.009s1 .675 1 1.5.45 1.5 1 1.5 1 .675 1 1.5.45 1.5 1 1.5 1 .675 1 1.5.45 1.5 1 1.5 1 .627 1 1.393.675 1.652 1.5 1.969c.825.316 1.5 1.264 1.5 2.107 0 .842.45 1.531 1 1.531s1 .675 1 1.5.45 1.5 1 1.5 1 .675 1 1.5.45 1.5 1 1.5 1 .627 1 1.393.704 1.663 1.563 1.993c.86.33 1.282 1.056.937 1.614s.077 1.284.937 1.614c.859.33 1.563 1.227 1.563 1.993s.367 1.393.815 1.393c.448 0 1.566 1.575 2.484 3.5.918 1.925 2.126 3.5 2.685 3.5.559 0 .903.405.766.901-.257.926 7.158 11.336 8.5 11.932.413.184.75.971.75 1.75 0 .78.45 1.417 1 1.417s1 .675 1 1.5.45 1.5 1 1.5 1 .675 1 1.5.45 1.5 1 1.5 1 .689 1 1.531c0 .843.675 1.791 1.5 2.107.825.317 1.5 1.203 1.5 1.969s.45 1.393 1 1.393 1 .675 1 1.5.45 1.5 1 1.5 1 .675 1 1.5.45 1.5 1 1.5 1 .675 1 1.5.675 1.5 1.5 1.5c1.31 0 1.5-5.358 1.5-42.218v-42.218l-2.656-2.282c-1.46-1.255-3.26-2.282-4-2.282-.739 0-1.344-.42-1.344-.933 0-.513-1.012-1.248-2.25-1.634-1.238-.387-2.475-.979-2.75-1.318-1.439-1.77-9.823-6.958-10.367-6.415-.348.348-.633.108-.633-.533 0-.642-.675-1.167-1.5-1.167s-1.5-.441-1.5-.981c0-.539-1.125-1.263-2.5-1.608-1.375-.345-2.5-1.029-2.5-1.519 0-.491-.675-.892-1.5-.892s-1.5-.379-1.5-.843c0-.463-1.675-1.7-3.723-2.75-2.047-1.049-4.59-2.679-5.651-3.622-1.061-.944-2.311-1.48-2.777-1.191-.467.288-.849.088-.849-.446 0-.533-2.025-1.95-4.5-3.148-2.475-1.198-4.5-2.615-4.5-3.148 0-.534-.45-.692-1-.352-.55.34-1 .141-1-.441s-.675-1.059-1.5-1.059-1.5-.441-1.5-.981c0-.539-1.125-1.263-2.5-1.608-1.375-.345-2.5-1.029-2.5-1.519 0-.491-.455-.892-1.01-.892-.556 0-3.251-1.575-5.99-3.5-2.739-1.925-5.434-3.5-5.99-3.5-.555 0-1.01-.42-1.01-.933 0-.513-.992-1.247-2.203-1.632-1.212-.384-2.819-1.314-3.572-2.067-.752-.752-2.011-1.368-2.796-1.368-.786 0-1.429-.45-1.429-1s-.675-1-1.5-1-1.501-.337-1.502-.75c-.001-.413-1.96-1.987-4.355-3.5-4.204-2.656-6.643-3.434-6.643-2.118" fill="undefined" fill-rule="evenodd"/></svg>